<svg width="200" height="100" viewBox="0 0 100 250" xmlns="http://www.w3.org/2000/svg">

    <!-- Cloud -->
    <g
    fill="white"
    transform="translate(-490,-550)">

    <path d="M654.4,695.9l-85.8-0.1
	v-0.2l-0.3,0
	c-5.1,0-9.2-4.1-9.2-9.2l0-0.1
	c0-5.1,4.1-9.2,9.2-9.2l0.3,0
	v0l37.8,0
	c5.1,0,9.2-4.1,9.2-9.2
	v-0.1c0-5.1-4.1-9.2-9.2-9.2l-16.7,0
	c-0.2,0-0.3,0-0.5,0l-8.3,0
	c-5.1,0-9.2-4.1-9.2-9.2l0-0.1
	c0-5.1,4.1-9.2,9.2-9.2l8.2,0
	c0.2,0,0.4,0,0.5,0h37.7
	c5.1,0,9.2-4.1,9.2-9.2
	v-0.1c0-5.1-4.1-9.2-9.2-9.2
	H487.2
	c-5.1,0-9.2,4.1-9.2,9.2
	v0.1
	c0,5.1,4.1,9.2,9.2,9.2
	h11.4c0.6,0,1.2,0.1,1.8,0.2l5.5,0
	c5.1,0,9.2,4.1,9.2,9.2l0,0.1
	c0,5.1-4.1,9.2-9.2,9.2l-76.1,0
	c-4.1,0.9-7.2,4.6-7.2,9l0,0.1
	c0,5.1,4.1,9.2,9.2,9.2l87.7,0.1
	v0.3l5.5,0
	c5.1,0,9.2,4.1,9.2,9.2 l0,0.1
	c0,5.1-4.1,9.2-9.2,9.2
	h0
	c-3,0-5.4,2.4-5.4,5.4
	v7.7
	c0,3,2.4,5.4,5.4,5.4
	h8.2l121.4,0.1
	c4.2,0,7.6-3.4,7.6-7.6l0-3.2
	C662.1,699.3,658.7,695.9,654.4,695.9z"/>
    </g>
</svg>