<svg width="100" height="100" viewBox="0 0 170 100" xmlns="http://www.w3.org/2000/svg">

    <!-- Cloud -->
    <g fill="white"
       transform="translate(-795,-450)">

    <path d="M806.5,483.7l66.9,0.1
	v0.2l0.3,0
	c4,0,7.2,3.2,7.2,7.2l0,0
	c0,4-3.2,7.2-7.2,7.2l-0.3,0
	v0l-54,0
	c-4,0-7.2,3.2-7.2,7.2l0,0
	c0,4,3.2,7.2,7.2,7.2l37.6,0
	c0.1,0,0.3,0,0.4,0l6.4,0
	c4,0,7.2,3.2,7.2,7.2l0,0
	c0,4-3.2,7.2-7.2,7.2 l-6.4,0
	c-0.1,0-0.3,0-0.4,0
	h-11.9
	c-4,0-7.2,3.2-7.2,7.2
	v0c0,4,3.2,7.2,7.2,7.2
	h91.9
	c4,0,7.2-3.2,7.2-7.2
	v0
	c0-4-3.2-7.2-7.2-7.2
	H928
	c-0.5,0-0.9,0-1.4-0.1
	l-4.3,0
	c-4,0-7.2-3.2-7.2-7.2l0,0
	c0-4,3.2-7.2,7.2-7.2
	l34.9,0
	c3.2-0.7,5.6-3.6,5.6-7
	v0
	c0-4-3.2-7.2-7.2-7.2 l-43.9,0
	v-0.2l-4.3,0c-4,0-7.2-3.2-7.2-7.2l0,0
	c0-4,3.2-7.2,7.2-7.2l0,0
	c0.5,0,29-0.1,29.5-0.3
	c1.6-0.6,4.1-3.5,4.1-5.3v-3.7
	c0-2.3-3.3-5.2-5.6-5.2
	h-29.2
	h-5.1l-94.6-0.1
	c-3.3,0-6,2.7-6,5.9l0,2.5
	C800.5,481,803.2,483.7,806.5,483.7z"/>
    </g>
</svg>