<svg width="200" height="100" viewBox="0 0 100 400" xmlns="http://www.w3.org/2000/svg">
    <!-- Cloud -->
    <g
    fill="white"
    transform="translate(-500,-300)">

        <path d="M654.6,517.5l-21.5,0
	c-0.2,0-0.4,0-0.7,0l-10.7,0
	c-6.6,0-11.9-5.3-11.9-11.9l0-0.1
	c0-6.6,5.3-11.9,11.9-11.9 l10.6,0
	c0.2,0,0.5,0,0.7,0
	h48.7
	c6.6,0,11.9-5.3,11.9-11.9
	v-0.1
	c0-6.6-5.3-11.9-11.9-11.9
	H402.9
	c-6.6,0-11.9,5.3-11.9,11.9
	v0.1
	c0,6.6,5.3,11.9,11.9,11.9
	h112.6
	c0.8,0,1.5,0.1,2.3,0.2l7.1,0
	c6.6,0,11.9,5.3,11.9,11.9l0,0.1
	c0,6.6-5.3,11.9-11.9,11.9l-61.8-0.1
	c-5.3,1.2-9.3,5.9-9.3,11.6l0,0.1
	c0,6.6,5.3,11.9,11.9,11.9l189,0.2
	c6.6,0,11.9-5.3,11.9-11.9l0-0.1
	C666.5,522.8,661.2,517.5,654.6,517.5z"/>
    </g>
</svg>