<svg width="100" height="100" viewBox="0 0 100 200" xmlns="http://www.w3.org/2000/svg">
    <!-- Cloud -->
    <g fill="white"
       transform="translate(-138,-550)">

    <path d="M96,690.4
	h148.9
	c2.8-1.1,4.7-3.8,4.7-7
	v0
	c0-4.2-3.4-7.5-7.5-7.5l-0.9,0
	v-0.3l-39.7,0
	c-4.2,0-7.5-3.4-7.5-7.5 l0,0
	c0-4.2,3.4-7.5,7.5-7.5l15.4,0
	v-0.1l59.7,0.1
	c4.2,0,7.5-3.4,7.5-7.5
	v0
	c0-4.2-3.4-7.5-7.5-7.5l-126.5-0.1
	c-4.2,0-7.5,3.4-7.5,7.5l0,0
	c0,4.2,3.4,7.5,7.5,7.5l8.1,0
	v0.3l8,0
	c4.2,0,7.5,3.4,7.5,7.5l0,0
	c0,4.2-3.4,7.5-7.5,7.5l-8,0
	v0.1 l-59.7-0.1
	c-4.2,0-7.5,3.4-7.5,7.5
	v0
	C91,686.6,93.1,689.4,96,690.4z"/>
    </g>
</svg>