<svg width="200" height="100" viewBox="0 0 100 350" xmlns="http://www.w3.org/2000/svg">
    <!-- Cloud -->
    <g
    fill="white"
    transform="translate(-830,-450)">

    <path d="M848.9,615.7l24.8,0.1
	v0.3l0.4,0
	c5.4,0,9.8,4.4,9.8,9.8l0,0.1
	c0,5.4-4.4,9.8-9.8,9.8l-0.3,0
	v0l-137.2,0
	c-5.4,0-9.8,4.4-9.8,9.8l0,0.1
	c0,5.4,4.4,9.8,9.8,9.8l114.9,0
	c0.2,0,0.4,0,0.5,0l8.7,0
	c5.4,0,9.8,4.4,9.8,9.8l0,0.1
	c0,5.4-4.4,9.8-9.8,9.8l-8.7,0
	c-0.2,0-0.4,0-0.6,0
	h-16.2
	c-5.4,0-9.8,4.4-9.8,9.8
	v0.1
	c0,5.4,4.4,9.8,9.8,9.8
	h124.8
	c5.4,0,9.8-4.4,9.8-9.8
	v-0.1
	c0-5.4-4.4-9.8-9.8-9.8
	h-12.1c-0.6,0-1.3-0.1-1.9-0.2l-5.8,0
	c-5.4,0-9.8-4.4-9.8-9.8l0-0.1
	c0-5.4,4.4-9.8,9.8-9.8l47.4,0.1
	c4.4-1,7.6-4.9,7.6-9.5
	v-0.1
	c0-5.4-4.4-9.8-9.8-9.8l-59.6-0.1
	v-0.3l-5.8,0
	c-5.4,0-9.8-4.4-9.8-9.8
	v-0.1
	c0-5.4,4.4-9.8,9.8-9.8l0,0
	c0.7,0,110.5-0.1,111.1-0.4
	c2.1-0.8,5.6-4.8,5.6-7.3
	v-5
	c0-3.2-4.5-7-7.6-7
	H918.3
	h-6.9l-62.4-0.1
	c-4.5,0-8.1,3.6-8.1,8.1l0,3.4
	C840.8,612.1,844.4,615.7,848.9,615.7z"/>
    </g>
</svg>