<svg width="100" height="100" viewBox="0 0 100 200" xmlns="http://www.w3.org/2000/svg">
    <!-- Cloud -->
    <g
    fill="white"
    transform="translate(-130,-400)">
        <path style="fill: white" d="M129.1,499.2l11.2,0
	c0.1,0,0.2,0,0.3,0
	l5.6,0
	c3.4,0,6.2,2.8,6.2,6.2
	v0
	c0,3.4-2.8,6.2-6.2,6.2
	l-5.5,0
	c-0.1,0-0.2,0-0.4,0
	H115
	c-3.4,0-6.2,2.8-6.2,6.2
	v0c0,3.4,2.8,6.2,6.2,6.2
	h145.2
	c3.4,0,6.2-2.8,6.2-6.2
	v0c0-3.4-2.8-6.2-6.2-6.2
	h-58.6c-0.4,0-0.8,0-1.2-0.1
	l-3.7,0
	c-3.4,0-6.2-2.8-6.2-6.2
	l0,0
	c0-3.4,2.8-6.2,6.2-6.2
	l32.2,0
	c2.8-0.6,4.8-3.1,4.8-6
	v0
	c0-3.4-2.8-6.2-6.2-6.2
	l-98.4-0.1
	c-3.4,0-6.2,2.8-6.2,6.2
	l0,0
	C122.9,496.5,125.7,499.2,129.1,499.2z"/>
    </g>
</svg>