<?xml version="1.0" ?>
<!DOCTYPE svg  PUBLIC '-//W3C//DTD SVG 1.1//EN'  'http://www.w3.org/Graphics/SVG/1.1/DTD/svg11.dtd'>
<svg enable-background="new 0 0 48 48" height="48px" version="1.1" viewBox="0 0 48 48" width="48px" xml:space="preserve" xmlns="http://www.w3.org/2000/svg" >
    <g id="Expanded"><g>
        <g><path style="fill:white" d="M44,40
        H4c-2.206,0-4-1.794-4-4
        V12c0-2.206,1.794-4,4-4
        h40c2.206,0,4,1.794,4,4
        v24C48,38.206,46.206,40,44,40z
        M4,10
        c-1.103,0-2,0.897-2,2
        v24c0,1.103,0.897,2,2,2
        h40c1.103,0,2-0.897,2-2
        V12c0-1.103-0.897-2-2-2
        H4z"/></g>
        <g><path style="fill:white" d="M24,29.191
        L6.457,17.84
        c-0.464-0.301-0.597-0.919-0.297-1.383
        s0.919-0.596,1.383-0.297
        L24,26.809
        L40.457,16.16
        c0.464-0.299,1.083-0.167,1.383,0.297
        s0.167,1.082-0.297,1.383
        L24,29.191z"/></g>
        <g><path style="fill:white" d="M6.001,34
        c-0.323,0-0.641-0.156-0.833-0.445
        c-0.307-0.46-0.183-1.08,0.277-1.387
        l9-6
        c0.46-0.307,1.081-0.183,1.387,0.277
        c0.307,0.46,0.183,1.08-0.277,1.387
        l-9,6
        C6.384,33.945,6.191,34,6.001,34z"/></g>
        <g><path style="fill:white" d="M41.999,34
        c-0.19,0-0.383-0.055-0.554-0.168
        l-9-6
        c-0.46-0.307-0.584-0.927-0.277-1.387
        c0.306-0.46,0.926-0.584,1.387-0.277
        l9,6
        c0.46,0.307,0.584,0.927,0.277,1.387
        C42.64,33.844,42.322,34,41.999,34z"/></g>
    </g>
    </g>
</svg>