<svg id="visual" viewBox="0 0 900 600" width="900" height="600" xmlns="http://www.w3.org/2000/svg" xmlns:xlink="http://www.w3.org/1999/xlink" version="1.1">
<path d="M0 212L90 282L180 260
L270 108L360 110L450 148
L540 229L630 279L720 261
L810 267L900 264L900 601
L810 601L720 601L630 601
L540 601L450 601L360 601
L270 601L180 601L90 601
L0 601Z" 
fill="#9f8d8d"></path>
<path d="M0 225L90 206L180 206
L270 283L360 251L450 255L540 272
L630 240L720 282L810 297L900 254
L900 601L810 601L720 601L630 601
L540 601L450 601L360 601L270 601
L180 601L90 601L0 601Z" 
fill="#8a7c7f"></path>
<path d="M0 346L90 362L180 397
L270 300L360 376L450 420L540 347
L630 414L720 337L810 284L900 386
L900 601L810 601L720 601L630 601
L540 601L450 601L360 601L270 601
L180 601L90 601L0 601Z" 
fill="#756c70"></path>
<path d="M0 472L90 376L180 484
L270 392L360 483L450 428L540 417
L630 379L720 417L810 368L900 395
L900 601L810 601L720 601L630 601
L540 601L450 601L360 601L270 601
L180 601L90 601L0 601Z" 
fill="#615c60"></path>
<path d="M0 499L90 532L180 544
L270 504L360 452L450 543L540 506
L630 524L720 533L810 521L900 521
L900 601L810 601L720 601L630 601
L540 601L450 601L360 601L270 601
L180 601L90 601L0 601Z" 
fill="#4e4c4f"></path>
</svg>
