<?xml version="1.0" standalone="no"?>
<!DOCTYPE svg PUBLIC "-//W3C//DTD SVG 20010904//EN"
 "http://www.w3.org/TR/2001/REC-SVG-20010904/DTD/svg10.dtd">
<svg version="1.0" xmlns="http://www.w3.org/2000/svg"
 width="1234.000000pt" height="1280.000000pt" viewBox="0 0 1234.000000 1280.000000"
 preserveAspectRatio="xMidYMid meet">
<metadata>
Created by potrace 1.15, written by Peter Selinger 2001-2017
</metadata>
<g transform="translate(0.000000,1280.000000) scale(0.100000,-0.100000)"
fill="#000000" stroke="none">
<path d="M944 12782 c-120 -42 -237 -150 -300 -278 -33 -66 -38 -87 -42 -162
-4 -89 7 -152 57 -317 12 -38 30 -131 41 -205 25 -177 36 -226 64 -277 l24
-42 -117 -43 c-107 -40 -113 -43 -78 -46 l39 -3 -69 -41 c-37 -23 -70 -43 -72
-45 -3 -2 9 -17 26 -34 l30 -31 -55 -51 c-68 -65 -171 -202 -216 -287 -37 -70
-68 -150 -57 -150 3 0 63 20 133 44 71 24 128 42 128 40 0 -3 -65 -83 -145
-178 -80 -96 -145 -176 -145 -180 0 -3 19 -6 42 -6 l42 0 -26 -27 c-13 -16
-46 -56 -72 -91 l-48 -63 54 7 c29 3 79 9 110 13 32 4 58 5 58 2 -1 -3 -59
-50 -129 -104 l-128 -98 20 -40 c27 -54 13 -100 -53 -172 -28 -30 -50 -57 -50
-59 0 -2 65 29 145 69 80 41 145 72 145 69 0 -2 -23 -64 -51 -138 -28 -73 -59
-155 -69 -183 -10 -27 -38 -102 -63 -165 -25 -63 -48 -124 -52 -135 -4 -11 47
34 114 100 66 66 121 118 121 115 0 -3 -26 -89 -59 -192 -32 -104 -56 -188
-53 -188 2 0 55 32 116 70 62 39 115 70 118 70 2 0 -10 -55 -29 -122 -65 -237
-84 -311 -80 -314 2 -2 18 16 36 41 42 59 48 61 47 17 0 -20 1 -73 2 -116 l2
-79 41 58 c29 40 44 53 49 44 3 -8 19 -60 35 -117 l28 -102 26 37 c68 99 96
134 99 121 2 -7 29 -129 60 -271 l58 -259 32 94 c46 138 244 568 260 568 5 0
9 -17 10 -37 3 -46 30 -170 42 -198 46 -103 160 -610 335 -1495 161 -815 202
-1064 215 -1309 11 -207 26 -305 62 -396 11 -27 27 -77 35 -110 7 -33 31 -91
52 -130 21 -38 59 -129 84 -200 46 -133 155 -547 163 -620 3 -22 13 -62 24
-90 10 -27 37 -113 60 -190 80 -270 164 -459 362 -815 69 -124 143 -261 165
-305 121 -240 297 -650 374 -871 l28 -81 -20 -53 c-11 -29 -38 -143 -60 -254
-53 -268 -73 -339 -115 -408 -44 -72 -85 -97 -229 -139 -146 -42 -188 -64
-263 -142 -83 -87 -107 -140 -107 -237 0 -114 38 -185 171 -317 56 -57 104
-103 107 -103 3 0 44 -27 93 -60 101 -69 175 -100 240 -100 40 0 49 5 87 45
l43 45 150 -3 c141 -2 151 -1 190 22 23 13 48 34 54 47 16 29 30 22 30 -16 0
-40 45 -156 76 -197 49 -64 172 -112 250 -97 30 5 32 8 23 31 -15 40 -10 50
10 18 22 -38 71 -79 121 -105 65 -33 167 -68 177 -61 6 3 18 21 27 39 9 18 23
35 31 39 8 3 45 -17 82 -43 58 -42 75 -49 113 -49 75 1 177 41 256 101 39 30
78 54 87 54 8 0 24 -17 34 -37 15 -32 24 -38 53 -41 19 -1 76 -9 125 -17 116
-18 154 -10 211 46 50 49 137 218 178 344 69 216 96 399 103 702 6 277 -4 420
-49 693 -26 157 -31 220 -35 415 -5 245 5 392 52 775 48 385 57 513 56 814 -1
314 7 383 52 472 38 75 141 169 207 189 14 4 60 25 102 46 43 22 85 39 93 39
9 0 24 -14 33 -31 9 -18 27 -43 39 -58 l21 -26 66 32 66 33 36 -56 c19 -30 41
-57 49 -60 20 -8 83 28 178 101 48 36 90 65 96 65 5 0 15 -25 21 -55 l11 -55
57 42 c31 23 67 50 78 61 22 18 22 18 34 -20 7 -21 15 -41 17 -46 2 -4 23 16
46 44 86 106 77 100 77 51 l0 -43 52 28 c66 35 155 123 195 192 l30 52 6 -76
c4 -42 4 -96 0 -119 -5 -34 -4 -39 8 -30 82 63 158 125 174 144 l20 22 5 -76
5 -76 80 51 c43 28 111 82 150 120 l72 69 11 -51 c7 -28 12 -60 12 -71 0 -33
21 -16 105 86 72 87 159 166 170 154 3 -2 0 -20 -5 -39 -15 -52 -12 -67 7 -39
36 54 169 193 224 236 70 54 148 94 183 94 31 0 44 -18 94 -136 56 -129 244
-683 247 -725 1 -22 15 -54 33 -80 50 -71 238 -554 281 -725 34 -137 45 -271
31 -396 -14 -126 -25 -163 -142 -453 -47 -115 -91 -231 -98 -257 -17 -64 -92
-155 -155 -187 -70 -37 -187 -34 -404 7 -247 48 -333 41 -403 -34 -58 -62 -84
-222 -55 -325 57 -194 332 -292 772 -275 517 19 765 133 974 446 81 121 122
204 266 535 256 589 345 859 361 1095 8 120 -11 196 -101 394 -89 196 -101
231 -116 318 l-13 76 52 173 c63 210 80 286 84 361 2 32 6 58 10 58 10 0 75
-102 124 -195 66 -123 117 -247 173 -413 56 -170 68 -218 52 -208 -17 11 -13
-2 9 -32 11 -15 50 -141 89 -287 38 -143 86 -318 106 -389 54 -192 101 -395
126 -541 32 -188 33 -476 1 -626 -59 -283 -148 -445 -305 -551 -33 -22 -169
-94 -303 -159 -267 -129 -315 -163 -360 -255 -62 -128 -31 -292 78 -403 94
-96 229 -122 352 -67 71 32 72 32 80 2 9 -35 71 -86 105 -86 43 0 106 25 213
86 109 61 173 77 253 63 124 -22 160 -22 209 0 80 35 171 107 221 173 122 162
196 375 269 774 20 104 44 232 56 286 31 150 41 272 45 553 2 196 9 305 26
445 19 147 24 234 24 425 l0 240 -47 135 c-25 74 -49 150 -53 167 -6 32 -25
46 -25 21 0 -20 -94 188 -123 273 -43 126 -58 235 -60 422 -1 95 3 216 7 270
6 65 5 97 -2 97 -5 0 -13 33 -17 73 -3 39 -13 128 -21 197 -35 291 -45 462
-51 873 -3 235 -4 427 -2 427 29 0 191 36 253 56 166 54 277 126 449 293 70
68 137 140 149 159 12 20 41 101 65 181 111 371 117 409 117 676 -1 221 -18
362 -65 535 -85 316 -271 615 -526 842 -70 62 -161 145 -203 184 -72 69 -131
109 -143 98 -3 -3 -36 14 -74 39 -52 34 -290 177 -357 215 -5 3 -6 -1 -1 -8 5
-8 3 -11 -6 -8 -8 3 -14 10 -14 15 0 6 -4 15 -9 20 -5 5 -6 3 -2 -4 4 -7 5
-13 3 -13 -3 0 -63 25 -133 56 -242 104 -557 217 -724 259 -201 51 -469 81
-685 78 -213 -3 -600 -35 -890 -75 -271 -36 -262 -36 -434 -19 -200 19 -380 1
-543 -56 -80 -27 -85 -32 -69 -62 9 -16 -2 -20 -117 -40 -164 -29 -371 -76
-448 -102 -38 -12 -73 -17 -90 -14 -19 4 -24 3 -16 -2 9 -7 -8 -18 -56 -37
-38 -15 -73 -26 -78 -25 -21 6 -75 -14 -87 -31 -7 -10 -58 -40 -113 -67 l-99
-47 -175 -6 -175 -5 39 -42 38 -43 -24 -9 c-56 -21 -127 -39 -132 -33 -4 3
-166 6 -362 7 l-356 1 6 -29 c5 -27 4 -29 -17 -23 -12 3 -27 6 -34 6 -7 0 -26
20 -43 45 -31 46 -108 125 -121 125 -4 0 -2 -21 3 -46 6 -25 7 -48 4 -51 -16
-16 -175 106 -242 186 -134 161 -185 320 -239 736 -31 236 -55 366 -89 478
-14 45 -32 127 -40 182 -8 55 -22 120 -30 144 -19 51 -21 123 -5 154 7 12 31
43 54 68 24 25 53 65 65 88 27 53 53 210 46 275 -11 100 -81 198 -167 235 -59
26 -86 21 -179 -34 -101 -58 -272 -120 -377 -135 -140 -20 -231 -13 -349 26
-147 49 -361 92 -532 106 -168 14 -341 1 -462 -33 -66 -19 -91 -21 -215 -15
-270 11 -503 54 -640 119 -63 30 -129 74 -267 177 -26 19 -55 50 -65 68 -9 17
-20 32 -23 32 -3 0 -47 9 -99 20 -114 24 -141 24 -207 2z m6711 -2403 c-22 -4
-49 -8 -60 -7 -16 0 -15 2 5 8 14 4 41 8 60 8 l35 0 -40 -9z m3714 -1443 c45
-24 190 -200 246 -301 38 -67 65 -183 90 -385 22 -178 20 -286 -5 -335 -25
-49 -25 -53 0 -30 20 18 20 18 4 -36 -28 -94 -73 -167 -148 -236 -75 -69 -133
-102 -178 -103 -40 0 -58 -10 -58 -31 0 -10 -7 -19 -15 -19 -19 0 -20 26 -2
33 21 8 28 389 15 810 -9 284 -8 389 2 503 7 79 14 144 17 144 2 0 16 -6 32
-14z"/>
<path d="M5815 9910 c-13 -6 -15 -9 -5 -9 8 0 22 4 30 9 18 12 2 12 -25 0z"/>
</g>
</svg>
